<svg xmlns="http://www.w3.org/2000/svg" width="703" height="1176" fill="none"><path fill="#fff" fill-rule="evenodd" d="M564 12.5C564 5.596 558.404 0 551.5 0S539 5.596 539 12.5v1c0 6.904-5.596 12.5-12.5 12.5S514 20.404 514 13.5v-1C514 5.596 508.404 0 501.5 0S489 5.596 489 12.5v1c0 6.904-5.596 12.5-12.5 12.5S464 20.404 464 13.5v-1C464 5.596 458.404 0 451.5 0S439 5.596 439 12.5v1c0 6.904-5.596 12.5-12.5 12.5S414 20.404 414 13.5v-1C414 5.596 408.404 0 401.5 0S389 5.596 389 12.5v1c0 6.904-5.596 12.5-12.5 12.5S364 20.404 364 13.5v-1C364 5.596 358.404 0 351.5 0S339 5.596 339 12.5v1c0 6.904-5.596 12.5-12.5 12.5S314 20.404 314 13.5v-1C314 5.596 308.404 0 301.5 0S289 5.596 289 12.5v1c0 6.904-5.596 12.5-12.5 12.5S264 20.404 264 13.5v-1C264 5.596 258.404 0 251.5 0S239 5.596 239 12.5v1c0 6.904-5.596 12.5-12.5 12.5S214 20.404 214 13.5v-1C214 5.596 208.404 0 201.5 0S189 5.596 189 12.5v1c0 6.904-5.596 12.5-12.5 12.5S164 20.404 164 13.5v-1C164 5.596 158.404 0 151.5 0S139 5.596 139 12.5v1c0 6.904-5.596 12.5-12.5 12.5S114 20.404 114 13.5v-1.432C114 5.403 108.597 0 101.932 0c-6.614 0-11.91 5.353-12.85 11.9-5.931 41.33-39.944 73.59-82.084 76.832C3.143 89.028 0 92.134 0 96v984c0 3.87 3.143 6.97 6.998 7.27 42.14 3.24 76.153 35.5 82.084 76.83.94 6.55 6.236 11.9 12.85 11.9 6.665 0 12.068-5.4 12.068-12.07v-1.43c0-6.9 5.596-12.5 12.5-12.5s12.5 5.6 12.5 12.5v1c0 6.9 5.596 12.5 12.5 12.5s12.5-5.6 12.5-12.5v-1c0-6.9 5.596-12.5 12.5-12.5s12.5 5.6 12.5 12.5v1c0 6.9 5.596 12.5 12.5 12.5s12.5-5.6 12.5-12.5v-1c0-6.9 5.596-12.5 12.5-12.5s12.5 5.6 12.5 12.5v1c0 6.9 5.596 12.5 12.5 12.5s12.5-5.6 12.5-12.5v-1c0-6.9 5.596-12.5 12.5-12.5s12.5 5.6 12.5 12.5v1c0 6.9 5.596 12.5 12.5 12.5s12.5-5.6 12.5-12.5v-1c0-6.9 5.596-12.5 12.5-12.5s12.5 5.6 12.5 12.5v1c0 6.9 5.596 12.5 12.5 12.5s12.5-5.6 12.5-12.5v-1c0-6.9 5.596-12.5 12.5-12.5s12.5 5.6 12.5 12.5v1c0 6.9 5.596 12.5 12.5 12.5s12.5-5.6 12.5-12.5v-1c0-6.9 5.596-12.5 12.5-12.5s12.5 5.6 12.5 12.5v1c0 6.9 5.596 12.5 12.5 12.5s12.5-5.6 12.5-12.5v-1c0-6.9 5.596-12.5 12.5-12.5s12.5 5.6 12.5 12.5v1c0 6.9 5.596 12.5 12.5 12.5s12.5-5.6 12.5-12.5v-1c0-6.9 5.596-12.5 12.5-12.5s12.5 5.6 12.5 12.5v1c0 6.9 5.596 12.5 12.5 12.5s12.5-5.6 12.5-12.5v-1c0-6.9 5.596-12.5 12.5-12.5s12.5 5.6 12.5 12.5v1.43c0 6.67 5.403 12.07 12.068 12.07 6.614 0 11.91-5.35 12.85-11.9 5.931-41.33 39.944-73.59 82.084-76.83 3.855-.3 6.998-3.4 6.998-7.27V96c0-3.866-3.143-6.972-6.998-7.268-42.14-3.24-76.153-35.503-82.084-76.832-.94-6.547-6.236-11.9-12.85-11.9C594.403 0 589 5.403 589 12.068V13.5c0 6.904-5.596 12.5-12.5 12.5S564 20.404 564 13.5v-1ZM26 848a8 8 0 1 0 0-16 8 8 0 0 0 0 16Zm26 0a8 8 0 1 0 0-16 8 8 0 0 0 0 16Zm34-8a8 8 0 1 1-16 0 8 8 0 0 1 16 0Zm18 8a8 8 0 1 0 0-16 8 8 0 0 0 0 16Zm34-8a8 8 0 1 1-16 0 8 8 0 0 1 16 0Zm18 8a8 8 0 1 0 0-16 8 8 0 0 0 0 16Zm34-8a8 8 0 1 1-16 0 8 8 0 0 1 16 0Zm18 8a8 8 0 1 0 0-16 8 8 0 0 0 0 16Zm34-8a8 8 0 1 1-16 0 8 8 0 0 1 16 0Zm18 8a8 8 0 1 0 0-16 8 8 0 0 0 0 16Zm34-8a8 8 0 1 1-16 0 8 8 0 0 1 16 0Zm18 8a8 8 0 1 0 0-16 8 8 0 0 0 0 16Zm34-8a8 8 0 1 1-16 0 8 8 0 0 1 16 0Zm18 8a8 8 0 1 0 0-16 8 8 0 0 0 0 16Zm34-8a8 8 0 1 1-16 0 8 8 0 0 1 16 0Zm18 8a8 8 0 1 0 0-16 8 8 0 0 0 0 16Zm34-8a8 8 0 1 1-16 0 8 8 0 0 1 16 0Zm18 8a8 8 0 1 0 0-16 8 8 0 0 0 0 16Zm34-8a8 8 0 1 1-16 0 8 8 0 0 1 16 0Zm18 8a8 8 0 1 0 0-16 8 8 0 0 0 0 16Zm34-8a8 8 0 1 1-16 0 8 8 0 0 1 16 0Zm18 8a8 8 0 1 0 0-16 8 8 0 0 0 0 16Zm34-8a8 8 0 1 1-16 0 8 8 0 0 1 16 0Zm18 8a8 8 0 1 0 0-16 8 8 0 0 0 0 16Zm34-8a8 8 0 1 1-16 0 8 8 0 0 1 16 0Zm18 8a8 8 0 1 0 0-16 8 8 0 0 0 0 16Z" clip-rule="evenodd"/></svg>